<svg width="1200" height="430" viewBox="0 0 1200 430" fill="none" xmlns="http://www.w3.org/2000/svg" role="img" aria-labelledby="title desc">
  <title id="title">오늘 한 가지 업무를 Codex에게 파일로 맡겨보세요</title>
  <desc id="desc">작은 자료를 선택하고, 명확한 산출물을 요청하고, 결과 파일을 열어 검토하는 세 단계 CTA입니다.</desc>
  <style>
    .kr { font-family: "Malgun Gothic", "Noto Sans KR", Arial, sans-serif; }
    .bold { font-weight: 800; }
  </style>
  <rect x="18" y="18" width="1164" height="394" rx="34" fill="#101828"/>
  <rect x="48" y="48" width="1104" height="334" rx="26" fill="#F8FAFC"/>
  <rect x="96" y="80" width="1008" height="272" rx="58" fill="#FFFFFF" stroke="#D8E1EA" stroke-width="3"/>
  <text class="kr bold" x="125" y="70" fill="#CBD5E1" font-size="18">Codex Practice Kit</text>
  <circle cx="145" cy="130" r="13" fill="#E8665B"/>
  <circle cx="186" cy="130" r="13" fill="#F2B84B"/>
  <circle cx="227" cy="130" r="13" fill="#55B984"/>
  <text class="kr bold" x="135" y="210" fill="#101828" font-size="48">오늘 한 가지 업무를</text>
  <text class="kr bold" x="135" y="268" fill="#E8665B" font-size="46">Codex</text>
  <text class="kr bold" x="292" y="268" fill="#E8665B" font-size="46">에게 파일로 맡겨보세요</text>
  <text class="kr bold" x="135" y="318" fill="#475467" font-size="23">작게 요청하고, 결과물을 열어 검토하고, 잘 된 프롬프트를 저장합니다.</text>

  <g transform="translate(890 124)">
    <rect width="154" height="154" rx="24" fill="#111827"/>
    <rect x="20" y="20" width="114" height="114" rx="15" fill="#1C2C3E"/>
    <rect x="40" y="45" width="86" height="8" rx="4" fill="#E8665B"/>
    <rect x="40" y="73" width="78" height="8" rx="4" fill="#CBD5E1"/>
    <rect x="40" y="101" width="58" height="8" rx="4" fill="#CBD5E1"/>
    <rect x="40" y="129" width="82" height="8" rx="4" fill="#CBD5E1"/>
  </g>

  <g transform="translate(135 342)">
    <rect width="205" height="48" rx="14" fill="#F8FAFC" stroke="#D8E1EA" stroke-width="2"/>
    <circle cx="34" cy="24" r="15" fill="#EAF7F1"/>
    <path d="M26 24H42M34 16V32" stroke="#2F9D7E" stroke-width="3" stroke-linecap="round"/>
    <text class="kr bold" x="70" y="22" fill="#101828" font-size="18">작은 자료</text>
    <text class="kr" x="70" y="40" fill="#475467" font-size="14">선택</text>
  </g>
  <text class="kr bold" x="370" y="374" fill="#A8B4C2" font-size="34">→</text>
  <g transform="translate(455 342)">
    <rect width="220" height="48" rx="14" fill="#FFF5ED" stroke="#F5CBAF" stroke-width="2"/>
    <circle cx="34" cy="24" r="15" fill="#FFE7DA"/>
    <path d="M22 30C32 12 46 12 56 30" stroke="#C95A46" stroke-width="3" stroke-linecap="round"/>
    <path d="M30 23H48" stroke="#C95A46" stroke-width="3" stroke-linecap="round"/>
    <text class="kr bold" x="72" y="22" fill="#101828" font-size="18">명확한 산출물</text>
    <text class="kr" x="72" y="40" fill="#475467" font-size="14">요청</text>
  </g>
  <text class="kr bold" x="704" y="374" fill="#A8B4C2" font-size="34">→</text>
  <g transform="translate(780 342)">
    <rect width="205" height="48" rx="14" fill="#F8FAFC" stroke="#D8E1EA" stroke-width="2"/>
    <circle cx="34" cy="24" r="15" fill="#E9F1FF"/>
    <path d="M25 18H41L49 26V36H25V18Z" stroke="#2E6BBD" stroke-width="3" stroke-linejoin="round"/>
    <path d="M41 18V26H49" stroke="#2E6BBD" stroke-width="3" stroke-linejoin="round"/>
    <text class="kr bold" x="72" y="22" fill="#101828" font-size="18">파일 열어</text>
    <text class="kr" x="72" y="40" fill="#475467" font-size="14">검토</text>
  </g>
  <text class="kr bold" x="1005" y="374" fill="#A8B4C2" font-size="34">→</text>
  <rect x="1065" y="342" width="11" height="48" rx="6" fill="#E8665B"/>
</svg>
